<?xml version="1.0" encoding="utf-8"?>
<svg version="1.1" id="Layer_1" x="0px" y="0px" viewBox="0 0 512 512" style="enable-background:new 0 0 512 512;" xmlns="http://www.w3.org/2000/svg">
  <path style="fill:#9ED368;" d="M 512 256.006 C 512 397.402 397.394 512.004 256.004 512 C 114.606 512.004 0 397.402 0 256.006 C -0.007 114.61 114.606 0 256.004 0 C 397.394 0 512 114.614 512 256.006 Z"/>
  <path style="fill: rgb(139, 192, 82);" d="M 478.054 382.855 C 477.927 382.711 477.811 382.558 477.661 382.43 C 477.425 382.17 477.158 381.963 476.88 381.745 C 476.656 381.474 386.703 293.676 386.426 293.458 C 386.201 293.187 385.991 292.927 385.723 292.695 C 385.487 292.435 258.218 168.26 257.636 167.855 C 256.47 166.261 254.654 165.154 252.496 165.154 C 248.949 165.154 246.073 167.962 246.073 171.423 L 246.073 244.06 C 246.073 244.06 141.915 142.398 141.914 142.397 L 128.568 129.371 C 126.059 126.922 121.994 126.922 119.485 129.371 C 116.976 131.82 116.976 135.787 119.485 138.238 C 119.485 138.238 120.966 139.683 120.968 139.684 L 236.989 252.925 L 162.568 252.925 C 159.021 252.925 156.144 255.733 156.144 259.196 C 156.144 261.301 157.279 263.074 158.911 264.211 C 159.326 264.78 285.66 388.111 286.114 388.47 C 286.336 388.741 286.548 389.002 286.815 389.234 C 287.051 389.493 378.484 478.737 378.752 478.967 C 378.884 479.113 379.04 479.227 379.189 479.351 C 421.422 457.844 456.018 424.074 478.054 382.855 Z"/>
  <g/>
  <g/>
  <g/>
  <g/>
  <g/>
  <g/>
  <g/>
  <g/>
  <g/>
  <g/>
  <g/>
  <g/>
  <g/>
  <g/>
  <g/>
  <g transform="matrix(-0.004653, -0.998249, 1.035943, -0.004829, -35.393639, 511.057281)" style="">
    <path style="fill: rgb(244, 246, 249);" d="M 201.724 157.752 C 198.746 157.752 196.331 159.987 196.331 162.742 L 196.331 220.555 L 97.673 129.274 C 95.566 127.325 92.154 127.325 90.047 129.274 C 87.94 131.224 87.94 134.381 90.047 136.33 L 188.705 227.612 L 126.22 227.612 C 123.242 227.612 120.827 229.846 120.827 232.602 C 120.827 235.357 123.242 237.592 126.22 237.592 L 201.725 237.592 C 204.703 237.592 207.118 235.357 207.118 232.602 L 207.118 162.741 C 207.117 159.987 204.702 157.752 201.724 157.752 Z"/>
  </g>
  <g transform="matrix(0.004653, 0.998249, -1.035943, 0.004829, 550.031738, 2.145902)" style="">
    <path style="fill: rgb(244, 246, 249);" d="M 201.724 157.752 C 198.746 157.752 196.331 159.987 196.331 162.742 L 196.331 220.555 L 97.673 129.274 C 95.566 127.325 92.154 127.325 90.047 129.274 C 87.94 131.224 87.94 134.381 90.047 136.33 L 188.705 227.612 L 126.22 227.612 C 123.242 227.612 120.827 229.846 120.827 232.602 C 120.827 235.357 123.242 237.592 126.22 237.592 L 201.725 237.592 C 204.703 237.592 207.118 235.357 207.118 232.602 L 207.118 162.741 C 207.117 159.987 204.702 157.752 201.724 157.752 Z"/>
  </g>
  <g transform="matrix(-0.998249, 0.004653, -0.004829, -1.035943, 514.918274, 548.773743)" style="">
    <path style="fill: rgb(244, 246, 249);" d="M 201.724 157.752 C 198.746 157.752 196.331 159.987 196.331 162.742 L 196.331 220.555 L 97.673 129.274 C 95.566 127.325 92.154 127.325 90.047 129.274 C 87.94 131.224 87.94 134.381 90.047 136.33 L 188.705 227.612 L 126.22 227.612 C 123.242 227.612 120.827 229.846 120.827 232.602 C 120.827 235.357 123.242 237.592 126.22 237.592 L 201.725 237.592 C 204.703 237.592 207.118 235.357 207.118 232.602 L 207.118 162.741 C 207.117 159.987 204.702 157.752 201.724 157.752 Z"/>
  </g>
  <g transform="matrix(0.998249, -0.004653, 0.004829, 1.035943, -0.949505, -31.863888)" style="">
    <path style="fill: rgb(244, 246, 249);" d="M 201.724 157.752 C 198.746 157.752 196.331 159.987 196.331 162.742 L 196.331 220.555 L 97.673 129.274 C 95.566 127.325 92.154 127.325 90.047 129.274 C 87.94 131.224 87.94 134.381 90.047 136.33 L 188.705 227.612 L 126.22 227.612 C 123.242 227.612 120.827 229.846 120.827 232.602 C 120.827 235.357 123.242 237.592 126.22 237.592 L 201.725 237.592 C 204.703 237.592 207.118 235.357 207.118 232.602 L 207.118 162.741 C 207.117 159.987 204.702 157.752 201.724 157.752 Z"/>
  </g>
</svg>