<?xml version="1.0" encoding="utf-8"?>
<svg viewBox="0 0 500 500" xmlns="http://www.w3.org/2000/svg">
  <g transform="matrix(8.355405, 0, 0, 8.264288, -1.847628, 0.120369)" style="">
    <path d="M53.143,18h1.071c0.553,0,1-0.447,1-1s-0.447-1-1-1h-1.071c-0.553,0-1,0.447-1,1S52.59,18,53.143,18z"/>
    <path d="M47.785,18h1.071c0.553,0,1-0.447,1-1s-0.447-1-1-1h-1.071c-0.553,0-1,0.447-1,1S47.232,18,47.785,18z"/>
    <path d="M58.5,16c-0.553,0-1,0.447-1,1c0,0.405,0.241,0.755,0.588,0.912C58.245,18.259,58.595,18.5,59,18.5c0.553,0,1-0.447,1-1V16 H58.5z"/>
    <path d="M59,20.705c-0.553,0-1,0.447-1,1v1.052c0,0.553,0.447,1,1,1s1-0.447,1-1v-1.052C60,21.152,59.553,20.705,59,20.705z"/>
    <path d="M59,31.218c-0.553,0-1,0.447-1,1v1.052c0,0.553,0.447,1,1,1s1-0.447,1-1v-1.052C60,31.665,59.553,31.218,59,31.218z"/>
    <path d="M59,36.475c-0.553,0-1,0.447-1,1v1.051c0,0.553,0.447,1,1,1s1-0.447,1-1v-1.051C60,36.922,59.553,36.475,59,36.475z"/>
    <path d="M59,25.962c-0.553,0-1,0.447-1,1v1.051c0,0.553,0.447,1,1,1s1-0.447,1-1v-1.051C60,26.409,59.553,25.962,59,25.962z"/>
    <path d="M59,46.987c-0.553,0-1,0.447-1,1v1.051c0,0.553,0.447,1,1,1s1-0.447,1-1v-1.051C60,47.435,59.553,46.987,59,46.987z"/>
    <path d="M59,41.73c-0.553,0-1,0.447-1,1v1.052c0,0.553,0.447,1,1,1s1-0.447,1-1V42.73C60,42.178,59.553,41.73,59,41.73z"/>
    <path d="M59,52.243c-0.553,0-1,0.447-1,1v1.052c0,0.553,0.447,1,1,1s1-0.447,1-1v-1.052C60,52.69,59.553,52.243,59,52.243z"/>
    <path d="M59,57.5c-0.405,0-0.755,0.241-0.912,0.588C57.741,58.245,57.5,58.595,57.5,59c0,0.553,0.447,1,1,1H60v-1.5 C60,57.947,59.553,57.5,59,57.5z"/>
    <path d="M28.013,58h-1.051c-0.553,0-1,0.447-1,1s0.447,1,1,1h1.051c0.553,0,1-0.447,1-1S28.565,58,28.013,58z"/>
    <path d="M22.757,58h-1.052c-0.553,0-1,0.447-1,1s0.447,1,1,1h1.052c0.553,0,1-0.447,1-1S23.31,58,22.757,58z"/>
    <path d="M33.27,58h-1.052c-0.553,0-1,0.447-1,1s0.447,1,1,1h1.052c0.553,0,1-0.447,1-1S33.822,58,33.27,58z"/>
    <path d="M49.038,58h-1.051c-0.553,0-1,0.447-1,1s0.447,1,1,1h1.051c0.553,0,1-0.447,1-1S49.591,58,49.038,58z"/>
    <path d="M54.295,58h-1.052c-0.553,0-1,0.447-1,1s0.447,1,1,1h1.052c0.553,0,1-0.447,1-1S54.848,58,54.295,58z"/>
    <path d="M43.782,58H42.73c-0.553,0-1,0.447-1,1s0.447,1,1,1h1.052c0.553,0,1-0.447,1-1S44.335,58,43.782,58z"/>
    <path d="M38.525,58h-1.051c-0.553,0-1,0.447-1,1s0.447,1,1,1h1.051c0.553,0,1-0.447,1-1S39.078,58,38.525,58z"/>
    <path d="M17.912,58.088C17.755,57.741,17.405,57.5,17,57.5c-0.553,0-1,0.447-1,1V60h1.5c0.553,0,1-0.447,1-1 C18.5,58.595,18.259,58.245,17.912,58.088z"/>
    <path d="M17,52.143c-0.553,0-1,0.447-1,1v1.071c0,0.553,0.447,1,1,1s1-0.447,1-1v-1.071C18,52.59,17.553,52.143,17,52.143z"/>
    <path d="M18,47.785c0-0.553-0.447-1-1-1s-1,0.447-1,1v1.071c0,0.553,0.447,1,1,1s1-0.447,1-1V47.785z"/>
    <path d="M17,44.5c0.366,0,0.673-0.206,0.847-0.5H18v-0.5V43V18h25h0.5H44v-0.153c0.294-0.174,0.5-0.48,0.5-0.847 s-0.206-0.673-0.5-0.847V0H0v44h16.153C16.327,44.294,16.634,44.5,17,44.5z"/>
  </g>
  <path style="fill: rgb(245, 223, 93);" d="M 435.823 298.093 L 417.182 269.491 C 411.509 260.789 406.522 251.79 401.8 242.698 C 388.565 217.212 358.261 199.394 322.975 199.394 C 275.526 199.394 237.057 231.64 237.057 271.409 L 237.057 312.367 C 237.057 340.001 255.623 364.002 282.869 376.076 C 289.621 379.067 293.848 384.934 293.848 391.331 L 293.848 426.182 L 352.112 426.182 L 352.112 391.331 C 352.112 384.934 356.339 379.067 363.082 376.076 C 390.328 364.002 408.903 340.001 408.903 312.367 L 408.903 307.325 L 429.29 307.325 C 434.938 307.325 438.531 302.251 435.823 298.093 Z"/>
  <circle style="fill: rgb(57, 64, 73);" cx="350.792" cy="201.284" r="13.286" transform="matrix(0.758972, 0, 0, 0.636143, 103.752563, 147.5336)"/>
  <path style="fill: rgb(0, 105, 163);" d="M 424.577 473.239 L 194.67 473.239 C 190.467 473.239 187.058 470.379 187.058 466.859 C 187.058 444.396 208.791 426.19 235.595 426.19 L 383.035 426.19 C 396.428 426.19 408.828 432.107 415.662 441.769 L 431.111 463.612 C 434.12 467.859 430.467 473.239 424.577 473.239 Z"/>
  <path style="opacity: 0.15;" d="M 431.93 465.214 L 206.484 465.214 C 202.282 465.214 198.881 462.363 198.881 458.834 C 198.881 448.38 203.602 438.843 211.347 431.628 C 196.834 438.661 187.058 451.801 187.058 466.859 C 187.058 470.379 190.467 473.239 194.67 473.239 L 424.577 473.239 C 429.75 473.239 433.192 469.098 431.93 465.214 Z"/>
  <path style="fill: rgb(74, 80, 88);" d="M 253.274 449.71 C 227.181 449.71 206.025 431.976 206.025 410.1 L 206.025 242.963 L 300.534 242.963 L 300.534 410.1 C 300.534 431.976 279.369 449.71 253.274 449.71 Z"/>
  <path style="opacity: 0.15;" d="M 322.975 199.394 C 287.583 199.394 257.186 217.335 244.025 242.963 L 206.025 242.963 L 206.025 336.655 L 300.534 290.92 L 300.534 410.1 C 300.534 415.835 299.071 421.273 296.473 426.19 L 306.014 426.19 C 308.621 421.273 310.075 415.835 310.075 410.1 L 310.075 286.301 L 401.458 242.078 C 388.064 216.923 357.968 199.394 322.975 199.394 Z"/>
  <path style="fill: rgb(140, 207, 222);" d="M 181.794 302.283 C 147.813 252.946 167.982 189.857 226.847 161.361 C 285.71 132.882 360.984 149.791 394.974 199.121 L 181.794 302.283 Z"/>
  <path style="fill: rgb(228, 93, 76);" d="M 373.343 176.031 L 168.759 275.037 C 171.459 284.374 175.779 293.549 181.794 302.283 L 394.974 199.121 C 388.95 190.385 381.631 182.666 373.343 176.031 Z"/>
  <path style="fill: rgb(140, 207, 222);" d="M 408.635 192.344 L 167.958 308.813 C 159.728 312.788 156.912 321.613 161.667 328.506 C 166.412 335.407 176.939 337.77 185.162 333.788 L 425.839 217.327 C 434.07 213.343 436.886 204.517 432.139 197.624 C 427.384 190.724 416.857 188.36 408.635 192.344 Z"/>
  <g transform="matrix(0.758972, 0, 0, 0.636143, 103.752563, 147.5336)" style="">
    <path style="opacity:0.15;fill:#25292F;enable-background:new    ;" d="M125.571,282.226c-10.842,6.26-24.706,2.545-30.966-8.297 l0,0c-6.26-10.842-2.545-24.706,8.297-30.966L401.705,70.45l0,0L84.598,253.531c-10.842,6.26-14.557,20.124-8.297,30.966 c6.26,10.842,20.124,14.557,30.966,8.297l317.107-183.081l0.001-0.001L125.571,282.226z"/>
    <path style="opacity:0.15;fill:#25292F;enable-background:new    ;" d="M176.047,14.613c-4.684,2.14-9.311,4.512-13.862,7.14 C84.625,66.533,58.051,165.71,102.83,243.27l21.875-12.63C81.857,155.956,105.019,61.395,176.047,14.613z"/>
  </g>
</svg>