<?xml version="1.0" encoding="iso-8859-1"?>
<!-- Generator: Adobe Illustrator 18.1.1, SVG Export Plug-In . SVG Version: 6.00 Build 0)  -->
<svg version="1.1" id="Capa_1" xmlns="http://www.w3.org/2000/svg" xmlns:xlink="http://www.w3.org/1999/xlink" width="137.70684039087948" height="59.52346988635712" viewBox="0 0 137.70684039087948 59.52346988635712" class="css-1j8o68f"><defs id="SvgjsDefs3747"></defs><g id="SvgjsG3748" featurekey="ewgXDI-0" transform="matrix(1.5042461296459737,0,0,1.5042461296459737,-0.5935464788535162,22.549097982582612)" fill="#111111"><path d="M4.1 20.32 c-0.76 0 -1.76 -0.76 -1.76 -1.34 l0 -5.84 c0 -1.16 -0.36 -1.5 -1.78 -1.5 c-0.22 0 -0.2 -0.58 -0.06 -0.64 c1.5 -0.62 2.14 -1.1 3.18 -2.32 c0.24 -0.28 0.72 0 0.66 0.32 c-0.08 0.32 -0.12 0.62 -0.12 0.9 c0 0.66 0.32 0.92 0.82 0.92 c0.8 0 1.68 -0.2 2.38 -0.26 c0.18 -0.02 0.26 0.14 0.26 0.4 c0 0.48 -0.3 1.18 -0.62 1.16 l-0.68 -0.04 c-1.54 -0.12 -2.18 -0.06 -2.18 0.82 l0 4.88 c0 0.8 0.54 1.04 1.2 1.04 c0.58 0 1.58 -0.12 2.18 -0.18 c0.16 -0.02 0.3 0.52 0.1 0.6 c-1.1 0.46 -1.88 0.7 -3.58 1.08 z M14.080000000000002 20.32 c-2.76 0 -4.8 -2.04 -4.8 -4.92 c0 -2.76 1.94 -5.06 4.88 -5.06 c2.78 0 4.82 2.04 4.82 4.9 c0 2.8 -1.94 5.08 -4.9 5.08 z M14.64 19.22 c1.04 0 2.38 -0.64 2.38 -3.04 c0 -2.64 -1.54 -4.76 -3.44 -4.76 c-1.02 0 -2.36 0.66 -2.36 3.06 c0 2.64 1.56 4.74 3.42 4.74 z M25.580000000000002 20.32 c-2.76 0 -4.8 -2.04 -4.8 -4.92 c0 -2.76 1.94 -5.06 4.88 -5.06 c2.78 0 4.82 2.04 4.82 4.9 c0 2.8 -1.94 5.08 -4.9 5.08 z M26.14 19.22 c1.04 0 2.38 -0.64 2.38 -3.04 c0 -2.64 -1.54 -4.76 -3.44 -4.76 c-1.02 0 -2.36 0.66 -2.36 3.06 c0 2.64 1.56 4.74 3.42 4.74 z M32.2 20 c-0.16 0 -0.3 -0.52 -0.14 -0.54 c0.6 -0.08 1.38 -0.36 1.38 -1.52 l0 -8.94 c0 -2.2 -0.3 -2.62 -1.56 -2.76 c-0.14 -0.02 -0.12 -0.5 0.02 -0.52 l3.48 -0.76 c0.2 -0.04 0.32 0.1 0.26 0.36 c-0.14 0.64 -0.34 1.88 -0.34 4.48 l0 8.14 c0 1.16 0.78 1.44 1.42 1.52 c0.12 0.02 0.02 0.54 -0.14 0.54 l-4.38 0 z M47.42 10.54 c1.08 0 1.24 1.88 -0.84 1.88 l-0.32 0 c0.16 0.4 0.24 0.84 0.24 1.28 c0 1.64 -1.08 3.4 -3.92 3.4 c-1.26 0 -2.28 0.72 -2.28 1.28 c0 0.28 0.26 0.56 0.92 0.56 l4.12 0 c1.34 0 2.28 0.34 2.28 1.62 c0 2.14 -2.68 4.02 -5.72 4.02 c-2.7 0 -3.24 -1.48 -3.24 -2.46 c0 -0.32 0.9 -1.06 1.56 -1.66 c-0.78 -0.38 -1.64 -1.38 -1.64 -1.74 c0 -0.38 0.16 -0.58 0.6 -0.86 l1.6 -1.08 c-1.36 -0.56 -2 -1.78 -2 -3.04 c0 -1.64 1.08 -3.4 3.9 -3.4 c1.08 0 1.9 0.26 2.52 0.7 c1.44 0.82 1.1 -0.5 2.22 -0.5 z M43 16.18 c1.1 0 1.66 -0.8 1.66 -2 c0 -1.5 -0.9 -2.92 -2.38 -2.92 c-1.08 0 -1.66 0.8 -1.66 2 c0 1.5 0.88 2.92 2.38 2.92 z M44.660000000000004 20.6 l-3.92 0 l-0.04 0 c-0.14 0.46 -0.3 1 -0.3 1.34 c0 0.86 0.84 1.64 2.44 1.64 c3.2 0 3.76 -2.98 1.82 -2.98 z M57.940000000000005 18.5 c0.18 -0.04 0.32 0.48 0.18 0.54 c-0.8 0.44 -2.44 1.28 -2.8 1.28 c-2.34 0 -5.52 -1.2 -5.52 -4.72 c0 -2.34 1.4 -5.26 5 -5.26 c3 0 3.38 2.14 3.38 3 c0 0.52 -0.16 1.22 -0.32 1.64 l-6.2 0.18 c0.34 2.62 2.54 3.7 4.06 3.7 c0.18 0 1.04 -0.1 2.22 -0.36 z M54.120000000000005 11.52 c-1.68 0 -2.42 1.1 -2.5 2.68 l4.72 -0.16 c0.2 -0.96 -0.18 -2.52 -2.22 -2.52 z M65.32000000000001 20.32 c-2.04 0 -5.24 -1.34 -5.24 -4.8 c0 -2.26 1.4 -5.18 5.24 -5.18 c1.18 0 2.8 0.38 2.64 0.96 l-0.16 0.64 c-0.44 1.76 -1.36 -0.36 -3.5 -0.36 c-1.54 0 -2.34 1.16 -2.34 2.9 c0 2.92 2.54 4.38 4.06 4.38 c0.22 0 0.82 -0.14 1.72 -0.36 c0.18 -0.04 0.32 0.46 0.18 0.52 c-0.82 0.46 -2.24 1.3 -2.6 1.3 z M69.8 20 c-0.16 0 -0.3 -0.52 -0.14 -0.54 c0.6 -0.08 1.38 -0.36 1.38 -1.52 l0 -8.94 c0 -2.2 -0.3 -2.62 -1.56 -2.76 c-0.14 -0.02 -0.12 -0.5 0.02 -0.52 l3.48 -0.76 c0.2 -0.04 0.32 0.1 0.26 0.36 c-0.14 0.64 -0.34 1.88 -0.34 4.48 l0 8.14 c0 1.16 0.78 1.44 1.42 1.52 c0.12 0.02 0.02 0.54 -0.14 0.54 l-4.38 0 z M78.86 20.34 c-1.12 -0.16 -4.1 -3.42 -5.28 -5.14 c-0.18 -0.26 -0.2 -0.46 0.06 -0.66 c1.78 -1.38 2.98 -2.56 2.08 -3.26 c-0.3 -0.24 -0.2 -0.58 0.14 -0.58 l4.12 0 c0.36 0 0.36 0.62 0 0.68 c-1.36 0.22 -2.98 1.12 -3.78 1.94 c-0.72 0.74 -0.94 1.1 -0.54 1.62 c1.2 1.56 3.46 4.06 4.88 4.24 c0.14 0.02 0.3 0.04 0.3 0.28 c0 0.18 -0.22 0.22 -0.46 0.32 z M87.04 20.32 c-2.76 0 -4.8 -2.04 -4.8 -4.92 c0 -2.76 1.94 -5.06 4.88 -5.06 c2.78 0 4.82 2.04 4.82 4.9 c0 2.8 -1.94 5.08 -4.9 5.08 z M87.60000000000001 19.22 c1.04 0 2.38 -0.64 2.38 -3.04 c0 -2.64 -1.54 -4.76 -3.44 -4.76 c-1.02 0 -2.36 0.66 -2.36 3.06 c0 2.64 1.56 4.74 3.42 4.74 z"></path></g></svg>