<?xml version="1.0" encoding="iso-8859-1"?>
<!-- Generator: Adobe Illustrator 19.0.0, SVG Export Plug-In . SVG Version: 6.00 Build 0)  -->
<svg version="1.1" id="Layer_1" xmlns="http://www.w3.org/2000/svg" xmlns:xlink="http://www.w3.org/1999/xlink" x="0px" y="0px"
	 viewBox="0 0 511.999 511.999" style="enable-background:new 0 0 511.999 511.999;" xml:space="preserve">
<path style="fill:#51B3DA;" d="M159.308,490.576l8.725-103.568h-44.257c-47.166,0-85.539-38.373-85.539-85.539V85.539
	C38.237,38.373,76.61,0,123.776,0h264.447c47.166,0,85.539,38.373,85.539,85.539v215.93c0,47.166-38.373,85.539-85.539,85.539
	h-41.919L191.102,507.81C177.626,518.298,157.855,507.809,159.308,490.576z"/>
<path style="fill:#238CC5;" d="M388.222,0H256v457.297l90.304-70.289h41.919c47.166,0,85.539-38.373,85.539-85.539V85.539
	C473.762,38.373,435.39,0,388.222,0z"/>
<path style="fill:#FFFFFF;" d="M358.006,128.659c-0.921,0.275-1.85,0.538-2.783,0.786c-3.172,0.842-5.482-3.052-3.219-5.427
	c2.375-2.492,4.468-5.249,6.227-8.222c1.649-2.786-1.255-6.026-4.199-4.678c-6.107,2.794-12.576,4.949-19.317,6.392
	c-1.09,0.233-2.214-0.137-3.01-0.917c-30.945-30.32-84.661-4.207-78.171,38.691c0.316,2.09-1.445,3.903-3.551,3.732
	c-34.883-2.849-65.89-19.112-87.688-43.543c-1.582-1.773-4.474-1.342-5.449,0.825c-7.354,16.337-4.235,35.561,7.941,48.834
	c2.266,2.471-0.125,6.369-3.336,5.402c-1.502-0.451-2.968-0.98-4.399-1.573l0.001,0.004c0,0-0.333-0.146-0.484-0.211
	c-1.163-0.443-4.001-1.088-3.769,3.156c1.538,15.267,10.736,28.327,23.784,35.359c2.903,1.565,2.407,6.497-2.498,6.14
	c-2.491-0.18-4.307,2.383-3.235,4.639c6.096,12.828,18.103,22.399,32.571,25.312c2.924,0.588,3.629,4.432,1.104,6.019
	c-14.464,9.092-30.866,13.865-47.422,14.315c-3.431,0.093-4.46,4.718-1.379,6.233c17.632,8.667,37.503,13.572,58.538,13.572
	c84.914,0,131.326-69.229,131.326-129.276c0-1.387-0.013-2.774-0.053-4.155c-0.03-1.084,0.467-2.102,1.34-2.746
	c5.29-3.907,10.154-8.378,14.493-13.305C363.549,131.539,361.168,127.711,358.006,128.659z"/>
<path style="fill:#E6E7E8;" d="M354.033,111.117c-6.106,2.793-12.573,4.948-19.312,6.392c-1.092,0.234-2.217-0.137-3.016-0.919
	c-24.908-24.401-64.561-12.243-75.703,15.797v144.931c56.895-17.824,91.258-73.25,89.54-127.247
	c-0.034-1.086,0.465-2.106,1.337-2.75c5.289-3.907,10.153-8.378,14.492-13.303c2.181-2.477-0.2-6.305-3.362-5.359
	c-0.921,0.276-1.85,0.538-2.783,0.786c-3.172,0.842-5.482-3.052-3.219-5.427c2.375-2.492,4.468-5.249,6.227-8.222
	C359.881,113.009,356.977,109.769,354.033,111.117z"/>
<g>
</g>
<g>
</g>
<g>
</g>
<g>
</g>
<g>
</g>
<g>
</g>
<g>
</g>
<g>
</g>
<g>
</g>
<g>
</g>
<g>
</g>
<g>
</g>
<g>
</g>
<g>
</g>
<g>
</g>
</svg>
