<?xml version="1.0" encoding="iso-8859-1"?>
<!-- Generator: Adobe Illustrator 19.0.0, SVG Export Plug-In . SVG Version: 6.00 Build 0)  -->
<svg version="1.1" id="Capa_1" xmlns="http://www.w3.org/2000/svg" xmlns:xlink="http://www.w3.org/1999/xlink" x="0px" y="0px"
	 viewBox="0 0 512 512" style="enable-background:new 0 0 512 512;" xml:space="preserve">
<path style="fill:#AAC4DA;" d="M394.667,96h-64c-11.767-0.035-21.298-9.566-21.333-21.333v-64L394.667,96z"/>
<path style="fill:#D9EEF7;" d="M394.667,96v384c-0.035,11.768-9.566,21.298-21.333,21.333H32
	c-11.767-0.035-21.298-9.566-21.333-21.333V32C10.702,20.233,20.233,10.702,32,10.667h277.333v64
	c0.035,11.767,9.566,21.298,21.333,21.333H394.667z"/>
<circle style="fill:#31E8BB;" cx="362.667" cy="362.667" r="138.667"/>
<g>
	<path style="fill:#4C5B66;" d="M64,64h106.667v21.333H64V64z"/>
	<path style="fill:#4C5B66;" d="M64,106.667h21.333V128H64V106.667z"/>
	<path style="fill:#4C5B66;" d="M106.667,106.667H128V128h-21.333V106.667z"/>
	<path style="fill:#4C5B66;" d="M21.333,480V32c0-5.891,4.776-10.667,10.667-10.667h266.667v53.333c0,17.673,14.327,32,32,32H352
		V85.333h-21.333c-5.891,0-10.667-4.776-10.667-10.667V36.416l64,64V192h21.333V96c-0.001-2.829-1.125-5.541-3.125-7.541
		L316.875,3.125c-2-2.001-4.713-3.125-7.541-3.125H32C14.327,0,0,14.327,0,32l0,0v448c0,17.673,14.327,32,32,32h213.333v-21.333H32
		C26.109,490.667,21.333,485.891,21.333,480z"/>
	<path style="fill:#4C5B66;" d="M362.667,213.333c-82.475,0-149.333,66.859-149.333,149.333S280.192,512,362.667,512
		S512,445.141,512,362.667C511.912,280.229,445.105,213.422,362.667,213.333z M362.667,490.667c-70.692,0-128-57.308-128-128
		s57.308-128,128-128s128,57.308,128,128C490.59,433.327,433.327,490.59,362.667,490.667z"/>
	<path style="fill:#4C5B66;" d="M323.125,312.459l-42.667,42.667c-4.164,4.165-4.164,10.917,0,15.083l42.667,42.667l15.083-15.083
		l-35.125-35.125l35.125-35.125L323.125,312.459z"/>
	<path style="fill:#4C5B66;" d="M402.208,312.459l-15.083,15.083l35.125,35.125l-35.125,35.125l15.083,15.083l42.667-42.667
		c4.164-4.165,4.164-10.917,0-15.083L402.208,312.459z"/>
	<path style="fill:#4C5B66;" d="M160,149.333h21.333v320H160V149.333z"/>
	<path style="fill:#4C5B66;" d="M341.333,181.333V160h-96C233.551,160,224,169.551,224,181.333v21.333
		c0,11.782,9.551,21.333,21.333,21.333h21.333v-21.333h-21.333v-21.333H341.333z"/>
	<path style="fill:#4C5B66;" d="M64,181.333h53.333v21.333H64V181.333z"/>
	<path style="fill:#4C5B66;" d="M64,234.667h53.333V256H64V234.667z"/>
	<path style="fill:#4C5B66;" d="M64,288h53.333v21.333H64V288z"/>
	<path style="fill:#4C5B66;" d="M64,341.333h53.333v21.333H64V341.333z"/>
	<path style="fill:#4C5B66;" d="M64,394.667h53.333V416H64V394.667z"/>
</g>
<g>
</g>
<g>
</g>
<g>
</g>
<g>
</g>
<g>
</g>
<g>
</g>
<g>
</g>
<g>
</g>
<g>
</g>
<g>
</g>
<g>
</g>
<g>
</g>
<g>
</g>
<g>
</g>
<g>
</g>
</svg>
