<?xml version="1.0" encoding="iso-8859-1"?>
<!-- Generator: Adobe Illustrator 19.0.0, SVG Export Plug-In . SVG Version: 6.00 Build 0)  -->
<svg version="1.1" id="Layer_1" xmlns="http://www.w3.org/2000/svg" xmlns:xlink="http://www.w3.org/1999/xlink" x="0px" y="0px"
	 viewBox="0 0 392.533 392.533" style="enable-background:new 0 0 392.533 392.533;" xml:space="preserve">
<g>
	<path style="fill:#FFFFFF;" d="M21.85,229.818c0,6.012,4.848,10.925,10.925,10.925h125.931
		c1.487-45.576,38.853-82.166,84.816-82.166s83.394,36.525,84.945,82.166h11.055c6.012,0,10.925-4.848,10.925-10.925V37.107
		l-131.62,97.81c-19.523,13.446-44.8,13.705-65.034,0.259L21.915,37.107"/>
	<circle style="fill:#FFFFFF;" cx="243.652" cy="243.588" r="63.224"/>
</g>
<circle style="fill:#FFC10D;" cx="243.652" cy="243.588" r="40.792"/>
<g>
	<path style="fill:#56ACE0;" d="M370.812,348.057c0-11.119-22.691-34.133-56.307-57.6c-6.335,9.503-14.481,17.713-23.984,23.984
		c23.402,33.616,46.416,56.307,57.6,56.307C354.262,370.36,370.424,354.198,370.812,348.057z"/>
	<path style="fill:#56ACE0;" d="M206.157,117.139l128.259-95.354H37.818L166.4,117.398
		C178.101,125.414,194.198,125.414,206.157,117.139z"/>
</g>
<path style="fill:#194F82;" d="M324.137,270.61c0.84-2.651,1.616-5.301,2.263-8.145h13.123c18.036,0,32.711-14.675,32.711-32.711
	V32.711C372.234,14.675,357.559,0,339.523,0H32.776C14.739,0,0.064,14.675,0.064,32.711v197.107
	c0,18.036,14.675,32.711,32.711,32.711h128c8.663,37.818,42.408,66.004,82.747,66.004c9.503,0,18.554-1.616,27.022-4.461
	c22.432,32.84,52.493,68.461,77.446,68.461c17.907,0,44.477-26.634,44.477-44.477C392.598,323.103,356.978,293.042,324.137,270.61z
	 M290.456,314.44c9.503-6.335,17.713-14.481,23.984-23.984c33.616,23.402,56.307,46.416,56.307,57.6
	c-0.388,6.206-16.549,22.303-22.691,22.691C336.873,370.683,313.858,348.057,290.456,314.44z M21.85,229.818v-29.22h23.79
	c6.012,0,10.925-4.848,10.925-10.925s-4.913-10.861-10.925-10.861H21.85v-21.786h56.501c6.012,0,10.925-4.848,10.925-10.925
	c0-6.012-4.848-10.925-10.925-10.925H21.85V37.107l131.879,98.069c20.234,13.446,45.511,13.188,65.034-0.259l131.491-97.81v192.711
	c0,6.012-4.848,10.925-10.925,10.925h-10.99c-1.487-45.576-38.853-82.166-84.816-82.166s-83.394,36.525-84.816,82.166H32.84
	C26.763,240.679,21.85,235.83,21.85,229.818z M166.4,117.398L37.818,21.786h296.469l-128.194,95.354
	C194.198,125.414,178.101,125.414,166.4,117.398z M180.363,243.588c0-34.909,28.251-63.224,63.224-63.224
	s63.289,28.251,63.289,63.224s-28.38,63.224-63.224,63.224S180.363,278.432,180.363,243.588z"/>
<g>
</g>
<g>
</g>
<g>
</g>
<g>
</g>
<g>
</g>
<g>
</g>
<g>
</g>
<g>
</g>
<g>
</g>
<g>
</g>
<g>
</g>
<g>
</g>
<g>
</g>
<g>
</g>
<g>
</g>
</svg>
